# WaveFront *.obj file (generated by Autodesk ATF)

mtllib 케이블 거치대.mtl

g 본체1

v -1.500000 9.600000 -1.686454
v 1.500000 9.600000 -1.686454
v 1.500000 9.600000 1.313546
v -1.500000 9.600000 1.313546
v -1.500000 10.600000 -1.686454
v -1.500000 10.600000 1.313546
v 1.500000 10.600000 1.313546
v -1.500000 4.600000 -1.686454
v 1.500000 4.600000 -1.686454
v -1.500000 4.600000 -2.686454
v -1.500000 10.600000 -2.686454
v 1.500000 4.600000 -2.686454
v 1.500000 10.600000 -2.686454
v 1.500000 3.600000 3.813546
v -1.500000 3.600000 3.813546
v -1.500000 3.600000 -2.686454
v 1.500000 3.600000 -2.686454
v 1.500000 4.600000 3.813546
v 1.500000 0.500000 3.813546
v -1.500000 0.500000 3.813546
v -1.500000 4.600000 5.000000
v 1.500000 4.600000 5.000000
v 1.500000 0.500000 0.000000
v -1.500000 0.500000 0.000000
v -1.500000 -0.500000 0.000000
v 1.500000 -0.500000 0.000000
v 1.500000 -0.500000 5.000000
v -1.500000 -0.500000 5.000000
vt 0.000000 0.000000 0.000000
vt 3.000000 0.000000 0.000000
vt 0.000000 3.000000 0.000000
vt 3.000000 3.000000 0.000000
vt 0.000000 0.000000 0.000000
vt 1.000000 0.000000 0.000000
vt 0.000000 3.000000 0.000000
vt 1.000000 3.000000 0.000000
vt 1.500000 0.500000 0.000000
vt -1.500000 0.500000 0.000000
vt 1.500000 -0.500000 0.000000
vt -1.500000 -0.500000 0.000000
vt 3.000000 5.000000 0.000000
vt 0.000000 5.000000 0.000000
vt 3.000000 0.000000 0.000000
vt 0.000000 0.000000 0.000000
vt 1.000000 0.000000 0.000000
vt 1.000000 5.000000 0.000000
vt 0.000000 0.000000 0.000000
vt 0.000000 6.000000 0.000000
vt 1.000000 6.000000 0.000000
vt 0.000000 0.000000 0.000000
vt 1.000000 0.000000 0.000000
vt 0.000000 5.000000 0.000000
vt 1.000000 6.000000 0.000000
vt -3.000000 6.000000 0.000000
vt -3.000000 5.000000 0.000000
vt 3.500000 -1.500000 0.000000
vt 3.500000 1.500000 0.000000
vt 0.500000 -1.500000 0.000000
vt -0.500000 1.500000 0.000000
vt -0.500000 -1.500000 0.000000
vt 0.000000 0.000000 0.000000
vt 3.000000 0.000000 0.000000
vt 0.000000 6.500000 0.000000
vt 3.000000 6.500000 0.000000
vt 0.000000 -0.000000 0.000000
vt 1.000000 0.000000 0.000000
vt -0.000000 5.500000 0.000000
vt 1.000000 6.500000 0.000000
vt -0.000000 6.500000 0.000000
vt 1.500000 -0.500000 0.000000
vt 1.500000 0.500000 0.000000
vt -1.500000 -0.500000 0.000000
vt -1.500000 0.500000 0.000000
vt -1.500000 6.500000 0.000000
vt 1.500000 6.500000 0.000000
vt 3.000000 3.100000 0.000000
vt -0.000000 3.100000 0.000000
vt 3.000000 0.000000 0.000000
vt -0.000000 0.000000 0.000000
vt -6.093227 1.500000 0.000000
vt -6.093227 -1.500000 0.000000
vt -0.593227 1.500000 0.000000
vt 0.593227 -1.500000 0.000000
vt 0.593227 1.500000 0.000000
vt 3.000000 3.813546 0.000000
vt -0.000000 3.813546 0.000000
vt 3.000000 0.000000 0.000000
vt 0.000000 0.000000 0.000000
vt 0.000000 0.000000 0.000000
vt 3.000000 0.000000 0.000000
vt 0.000000 5.000000 0.000000
vt 3.000000 5.000000 0.000000
vt 0.000000 0.000000 0.000000
vt 1.000000 0.000000 0.000000
vt 0.000000 3.813546 0.000000
vt 1.000000 5.000000 0.000000
vt -4.100000 5.000000 0.000000
vt -3.100000 3.813546 0.000000
vt -4.100000 -1.686454 0.000000
vt -3.100000 -2.686454 0.000000
vt -4.100000 -2.686454 0.000000
vt 1.000000 0.000000 0.000000
vt 1.000000 3.813546 0.000000
vt 0.000000 0.000000 0.000000
vt 0.000000 5.000000 0.000000
vt 4.100000 3.813546 0.000000
vt 5.100000 5.000000 0.000000
vt 5.100000 3.813546 0.000000
vt 1.500000 4.600000 0.000000
vt -1.500000 4.600000 0.000000
vt 1.500000 -0.500000 0.000000
vt -1.500000 -0.500000 0.000000
vt -1.500000 -0.500000 0.000000
vt 1.500000 -0.500000 0.000000
vt -1.500000 0.500000 0.000000
vt 1.500000 0.500000 0.000000
vn 0.000000 -1.000000 0.000000
vn 0.000000 -1.000000 0.000000
vn 0.000000 -1.000000 0.000000
vn 0.000000 -1.000000 0.000000
vn -1.000000 0.000000 0.000000
vn -1.000000 0.000000 0.000000
vn -1.000000 0.000000 0.000000
vn -1.000000 0.000000 0.000000
vn 0.000000 0.000000 1.000000
vn 0.000000 0.000000 1.000000
vn 0.000000 0.000000 1.000000
vn 0.000000 0.000000 1.000000
vn 0.000000 0.000000 1.000000
vn 0.000000 0.000000 1.000000
vn 0.000000 0.000000 1.000000
vn 0.000000 0.000000 1.000000
vn -1.000000 0.000000 0.000000
vn -1.000000 0.000000 0.000000
vn -1.000000 0.000000 0.000000
vn -1.000000 0.000000 0.000000
vn -1.000000 0.000000 0.000000
vn 1.000000 -0.000000 0.000000
vn 1.000000 -0.000000 0.000000
vn 1.000000 -0.000000 0.000000
vn 1.000000 -0.000000 0.000000
vn 1.000000 -0.000000 0.000000
vn 1.000000 -0.000000 0.000000
vn 0.000000 1.000000 0.000000
vn 0.000000 1.000000 0.000000
vn 0.000000 1.000000 0.000000
vn 0.000000 1.000000 0.000000
vn 0.000000 1.000000 0.000000
vn -0.000000 -1.000000 -0.000000
vn -0.000000 -1.000000 -0.000000
vn -0.000000 -1.000000 -0.000000
vn -0.000000 -1.000000 -0.000000
vn 1.000000 -0.000000 0.000000
vn 1.000000 -0.000000 0.000000
vn 1.000000 -0.000000 0.000000
vn 1.000000 -0.000000 0.000000
vn 1.000000 -0.000000 0.000000
vn 0.000000 0.000000 -1.000000
vn 0.000000 0.000000 -1.000000
vn 0.000000 0.000000 -1.000000
vn 0.000000 0.000000 -1.000000
vn 0.000000 0.000000 -1.000000
vn 0.000000 0.000000 -1.000000
vn 0.000000 0.000000 -1.000000
vn 0.000000 0.000000 -1.000000
vn 0.000000 0.000000 -1.000000
vn 0.000000 0.000000 -1.000000
vn 0.000000 1.000000 0.000000
vn 0.000000 1.000000 0.000000
vn 0.000000 1.000000 0.000000
vn 0.000000 1.000000 0.000000
vn 0.000000 1.000000 0.000000
vn 0.000000 1.000000 -0.000000
vn 0.000000 1.000000 -0.000000
vn 0.000000 1.000000 -0.000000
vn 0.000000 1.000000 -0.000000
vn 0.000000 -1.000000 0.000000
vn 0.000000 -1.000000 0.000000
vn 0.000000 -1.000000 0.000000
vn 0.000000 -1.000000 0.000000
vn -1.000000 -0.000000 0.000000
vn -1.000000 -0.000000 0.000000
vn -1.000000 -0.000000 0.000000
vn -1.000000 -0.000000 0.000000
vn -1.000000 -0.000000 0.000000
vn -1.000000 -0.000000 0.000000
vn -1.000000 -0.000000 0.000000
vn -1.000000 -0.000000 0.000000
vn -1.000000 -0.000000 0.000000
vn 1.000000 0.000000 -0.000000
vn 1.000000 0.000000 -0.000000
vn 1.000000 0.000000 -0.000000
vn 1.000000 0.000000 -0.000000
vn 1.000000 0.000000 -0.000000
vn 1.000000 0.000000 -0.000000
vn 1.000000 0.000000 -0.000000
vn 0.000000 0.000000 1.000000
vn 0.000000 0.000000 1.000000
vn 0.000000 0.000000 1.000000
vn 0.000000 0.000000 1.000000
vn -0.000000 -0.000000 -1.000000
vn -0.000000 -0.000000 -1.000000
vn -0.000000 -0.000000 -1.000000
vn -0.000000 -0.000000 -1.000000
usemtl 강철_-_새틴
f 1/1/1 2/2/2 4/3/3
f 4/3/3 2/2/2 3/4/4
f 5/5/5 1/6/6 6/7/7
f 6/7/7 1/6/6 4/8/8
f 7/9/9 6/10/10 3/11/11
f 3/11/11 6/10/10 4/12/12
f 2/13/13 1/14/14 9/15/15
f 9/15/15 1/14/14 8/16/16
f 8/17/17 1/18/18 10/19/19
f 10/19/19 1/18/18 11/20/20
f 11/20/20 1/18/18 5/21/21
f 9/22/22 12/23/23 2/24/24
f 2/24/24 12/23/23 13/25/25
f 2/24/24 13/25/25 7/26/26
f 7/26/26 3/27/27 2/24/24
f 6/28/28 7/29/29 5/30/30
f 5/30/30 7/29/29 13/31/31
f 5/30/30 13/31/31 11/32/32
f 14/33/33 15/34/34 17/35/35
f 17/35/35 15/34/34 16/36/36
f 18/37/37 14/38/38 9/39/39
f 9/39/39 14/38/38 17/40/40
f 9/39/39 17/40/40 12/41/41
f 16/42/42 10/43/43 17/44/44
f 17/44/44 10/43/43 12/45/45
f 12/45/45 10/43/43 13/46/46
f 13/46/46 10/43/43 11/47/47
f 15/48/48 14/49/49 20/50/50
f 20/50/50 14/49/49 19/51/51
f 9/52/52 8/53/53 18/54/54
f 18/54/54 8/53/53 21/55/55
f 18/54/54 21/55/55 22/56/56
f 20/57/57 19/58/58 24/59/59
f 24/59/59 19/58/58 23/60/60
f 25/61/61 26/62/62 28/63/63
f 28/63/63 26/62/62 27/64/64
f 24/65/65 25/66/66 20/67/67
f 20/67/67 25/66/66 28/68/68
f 20/67/67 28/68/68 21/69/69
f 20/67/67 21/69/69 15/70/70
f 15/70/70 21/69/69 8/71/71
f 15/70/70 8/71/71 16/72/72
f 16/72/72 8/71/71 10/73/73
f 23/74/74 19/75/75 26/76/76
f 26/76/76 19/75/75 27/77/77
f 27/77/77 19/75/75 14/78/78
f 27/77/77 14/78/78 22/79/79
f 22/79/79 14/78/78 18/80/80
f 22/81/81 21/82/82 27/83/83
f 27/83/83 21/82/82 28/84/84
f 26/85/85 25/86/86 23/87/87
f 23/87/87 25/86/86 24/88/88
# 28 vertices
# 88 texture params
# 88 normals
# 52 facets

# 1 groups
